<svg width="18" height="19" viewBox="0 0 18 19" fill="none" xmlns="http://www.w3.org/2000/svg">
<path fill-rule="evenodd" clip-rule="evenodd" d="M8.99917 0.810772C4.02941 0.810772 0 4.84018 0 9.81105C0 13.7874 2.57853 17.1604 6.15488 18.3511C6.60517 18.4334 6.76927 18.1555 6.76927 17.9168C6.76927 17.7036 6.76153 17.1372 6.75711 16.3864C4.25372 16.9301 3.72553 15.1797 3.72553 15.1797C3.31612 14.1405 2.72605 13.8637 2.72605 13.8637C1.9089 13.3051 2.78793 13.3161 2.78793 13.3161C3.69127 13.3802 4.16643 14.2438 4.16643 14.2438C4.96921 15.619 6.27312 15.2217 6.78584 14.9919C6.86761 14.4101 7.09966 14.0134 7.35713 13.7885C5.35873 13.5614 3.25756 12.789 3.25756 9.34032C3.25756 8.35796 3.6084 7.55463 4.18411 6.92532C4.09129 6.69769 3.78244 5.78275 4.27195 4.54348C4.27195 4.54348 5.02778 4.30149 6.74717 5.46616C7.46487 5.26671 8.23506 5.16671 9.00028 5.16339C9.76439 5.16671 10.5346 5.26671 11.2534 5.46616C12.9717 4.30149 13.7258 4.54348 13.7258 4.54348C14.217 5.78275 13.9082 6.69769 13.8153 6.92532C14.3922 7.55463 14.7408 8.35796 14.7408 9.34032C14.7408 12.7979 12.6363 13.5587 10.6313 13.7813C10.9545 14.0592 11.2423 14.6084 11.2423 15.4482C11.2423 16.651 11.2313 17.6218 11.2313 17.9168C11.2313 18.1577 11.3932 18.4378 11.8501 18.35C15.4237 17.1571 18 13.7863 18 9.81105C18 4.84018 13.97 0.810772 8.99917 0.810772Z" fill="#1B1817"/>
</svg>
