<svg width="41" height="26" viewBox="0 0 41 26" fill="none" xmlns="http://www.w3.org/2000/svg">
<path d="M35.3333 4H5.66667C4.74619 4 4 4.7209 4 5.61017V21.3898C4 22.2791 4.74619 23 5.66667 23H35.3333C36.2538 23 37 22.2791 37 21.3898V5.61017C37 4.7209 36.2538 4 35.3333 4Z" stroke="black" stroke-width="2"/>
<path d="M8 20V9H11.3548L14.7097 13.0441L18.0645 9H21.4194V20H18.0645V13.6912L14.7097 17.7353L11.3548 13.6912V20H8ZM28.9677 20L23.9355 14.6618H27.2903V9H30.6452V14.6618H34L28.9677 20Z" fill="black"/>
</svg>
